<?xml version="1.0" encoding="UTF-8" standalone="no"?><!DOCTYPE svg PUBLIC "-//W3C//DTD SVG 1.1//EN" "http://www.w3.org/Graphics/SVG/1.1/DTD/svg11.dtd"><svg width="100%" height="100%" viewBox="0 0 900 300" version="1.1" xmlns="http://www.w3.org/2000/svg" xmlns:xlink="http://www.w3.org/1999/xlink" xml:space="preserve" xmlns:serif="http://www.serif.com/" style="fill-rule:evenodd;clip-rule:evenodd;stroke-linejoin:round;stroke-miterlimit:2;"><g><path d="M1.221,269.043l6.192,0c3.522,0 5.833,0.138 6.934,0.413c1.101,0.275 2.112,0.771 3.034,1.486c0.922,0.715 1.644,1.61 2.167,2.683c0.523,1.073 0.784,2.284 0.784,3.632c0,1.348 -0.254,2.559 -0.763,3.632c-0.509,1.074 -1.239,1.961 -2.188,2.663c-0.949,0.701 -2.112,1.197 -3.488,1.486c-1.376,0.289 -3.811,0.433 -7.306,0.433l-1.816,0l-0,13.786l-3.55,0l-0,-30.214Zm3.55,13.002l4.705,0c2.78,0.055 4.672,-0.385 5.676,-1.321c1.004,-0.935 1.507,-2.105 1.507,-3.508c-0,-3.137 -2.312,-4.706 -6.935,-4.706l-4.953,0l-0,9.535Z" style="fill:#090102;fill-rule:nonzero;"/><path d="M57.155,299.257l-4.458,0l-10.65,-13.786l-1.238,0l0,13.786l-3.55,0l0,-30.214l6.192,0c3.302,0 5.572,0.145 6.811,0.434c1.238,0.289 2.311,0.777 3.219,1.465c0.908,0.688 1.624,1.575 2.147,2.662c0.523,1.087 0.784,2.291 0.784,3.612c-0,2.504 -0.853,4.506 -2.559,6.005c-1.706,1.5 -4.169,2.25 -7.389,2.25l10.691,13.786Zm-16.346,-17.253l4.83,-0c2.421,0.027 4.21,-0.337 5.366,-1.094c1.155,-0.757 1.733,-1.967 1.733,-3.632c0,-1.665 -0.564,-2.876 -1.692,-3.632c-1.128,-0.757 -2.889,-1.136 -5.284,-1.136l-4.953,0l0,9.494Z" style="fill:#090102;fill-rule:nonzero;"/><path d="M88.034,268.3c2.944,0 5.655,0.695 8.131,2.085c2.477,1.389 4.424,3.309 5.841,5.758c1.417,2.449 2.126,5.111 2.126,7.987c-0,2.875 -0.702,5.537 -2.105,7.986c-1.404,2.449 -3.33,4.376 -5.779,5.779c-2.449,1.403 -5.112,2.105 -7.987,2.105c-2.876,-0 -5.552,-0.695 -8.029,-2.084c-2.476,-1.39 -4.416,-3.302 -5.82,-5.738c-1.403,-2.435 -2.105,-5.09 -2.105,-7.966c-0,-2.875 0.702,-5.545 2.105,-8.007c1.404,-2.463 3.323,-4.396 5.758,-5.8c2.436,-1.403 5.057,-2.105 7.864,-2.105Zm0.123,28.233c3.44,-0 6.35,-1.17 8.731,-3.509c2.38,-2.339 3.57,-5.269 3.57,-8.791c0,-3.522 -1.204,-6.481 -3.612,-8.875c-2.407,-2.393 -5.304,-3.59 -8.689,-3.59c-3.467,-0 -6.363,1.203 -8.688,3.611c-2.326,2.408 -3.488,5.338 -3.488,8.792c-0,3.453 1.197,6.377 3.591,8.771c2.394,2.394 5.256,3.591 8.585,3.591Z" style="fill:#090102;fill-rule:nonzero;"/><path d="M120.894,269.043l6.439,0c4.348,0 7.512,0.324 9.494,0.97c1.981,0.647 3.694,1.651 5.139,3.013c1.444,1.363 2.552,3.02 3.323,4.974c0.77,1.954 1.155,4.21 1.155,6.769c0,2.559 -0.571,4.974 -1.713,7.244c-1.142,2.27 -2.765,4.045 -4.87,5.325c-2.106,1.279 -5.181,1.919 -9.226,1.919l-9.741,0l-0,-30.214Zm3.426,26.829l3.137,0c3.495,0 6.04,-0.178 7.636,-0.536c1.596,-0.358 2.986,-1.046 4.169,-2.064c1.183,-1.018 2.085,-2.263 2.704,-3.735c0.619,-1.473 0.928,-3.172 0.928,-5.098c0,-1.926 -0.364,-3.708 -1.093,-5.345c-0.73,-1.637 -1.768,-2.972 -3.117,-4.004c-1.348,-1.032 -2.931,-1.72 -4.747,-2.064c-1.816,-0.344 -4.416,-0.516 -7.801,-0.516l-1.816,0l-0,23.362Z" style="fill:#090102;fill-rule:nonzero;"/><path d="M183.349,287.205c0,3.054 -0.309,5.4 -0.928,7.037c-0.619,1.637 -1.72,3.006 -3.302,4.107c-1.583,1.101 -3.433,1.651 -5.552,1.651c-1.679,-0 -3.192,-0.268 -4.541,-0.805c-1.348,-0.536 -2.47,-1.293 -3.364,-2.27c-0.894,-0.977 -1.534,-2.064 -1.919,-3.261c-0.386,-1.197 -0.578,-3.35 -0.578,-6.459l-0,-18.162l3.55,0l-0,18.162c-0,1.953 0.055,3.364 0.165,4.23c0.11,0.867 0.426,1.706 0.949,2.518c0.523,0.812 1.273,1.459 2.25,1.94c0.977,0.482 2.084,0.722 3.323,0.722c1.486,0 2.772,-0.433 3.859,-1.3c1.087,-0.867 1.789,-1.871 2.105,-3.013c0.317,-1.142 0.475,-2.841 0.475,-5.097l-0,-18.162l3.508,0l0,18.162Z" style="fill:#090102;fill-rule:nonzero;"/><path d="M229.872,293.726c-3.247,4.183 -7.705,6.274 -13.374,6.274c-4.788,-0 -8.709,-1.513 -11.764,-4.54c-3.054,-3.027 -4.581,-6.852 -4.581,-11.475c-0,-2.862 0.708,-5.503 2.125,-7.925c1.418,-2.421 3.378,-4.32 5.882,-5.696c2.504,-1.376 5.208,-2.064 8.111,-2.064c2.904,0 5.504,0.558 7.802,1.672c2.298,1.114 4.217,2.745 5.758,4.891l-2.724,2.105c-2.862,-3.467 -6.398,-5.2 -10.609,-5.2c-3.439,-0 -6.405,1.21 -8.895,3.632c-2.49,2.421 -3.736,5.386 -3.736,8.895c0,3.508 1.218,6.439 3.654,8.791c2.435,2.353 5.593,3.529 9.473,3.529c3.88,0 7.251,-1.664 10.113,-4.994l2.765,2.105Z" style="fill:#090102;fill-rule:nonzero;"/><path d="M264.136,272.552l-14.035,-0l0,8.668l13.911,-0l-0,3.467l-13.911,-0l0,11.062l13.911,-0l-0,3.508l-17.461,0l0,-30.214l17.585,0l-0,3.509Z" style="fill:#090102;fill-rule:nonzero;"/><path d="M303.971,299.257l-1.073,0l-19.152,-21.917l-0,21.917l-3.633,0l0,-30.214l1.073,0l19.277,22.207l-0,-22.207l3.508,0l0,30.214Z" style="fill:#090102;fill-rule:nonzero;"/><path d="M335.965,272.51l-6.605,0l0,26.747l-3.591,0l0,-26.747l-6.646,0l0,-3.467l16.842,0l-0,3.467Z" style="fill:#090102;fill-rule:nonzero;"/><path d="M406.984,299.257l-3.509,0l-2.807,-20.555l-10.154,20.555l-1.073,0l-10.278,-20.72l-2.807,20.72l-3.426,0l4.293,-30.214l0.866,0l11.888,23.981l11.806,-23.981l0.866,0l4.335,30.214Z" style="fill:#090102;fill-rule:nonzero;"/><path d="M441.288,272.552l-14.034,-0l-0,8.668l13.91,-0l0,3.467l-13.91,-0l-0,11.062l13.91,-0l0,3.508l-17.46,0l0,-30.214l17.584,0l0,3.509Z" style="fill:#090102;fill-rule:nonzero;"/><path d="M469.855,282.706c1.927,0.715 3.378,1.733 4.355,3.054c0.977,1.321 1.465,2.889 1.465,4.705c0,2.532 -0.915,4.63 -2.744,6.295c-1.83,1.665 -4.218,2.497 -7.162,2.497l-8.462,0l0,-30.214l6.15,0c3.192,0 5.621,0.654 7.286,1.961c1.665,1.307 2.497,3.171 2.497,5.593c0,2.641 -1.128,4.678 -3.385,6.109Zm-9.039,-1.28l1.403,-0c2.477,-0 4.327,-0.385 5.552,-1.156c1.224,-0.77 1.837,-1.995 1.837,-3.673c-0,-2.724 -1.885,-4.087 -5.655,-4.087l-3.137,0l-0,8.916Zm-0,14.364l3.384,-0c2.119,-0 3.66,-0.206 4.623,-0.619c0.964,-0.413 1.734,-1.046 2.312,-1.899c0.578,-0.853 0.867,-1.72 0.867,-2.6c-0,-0.881 -0.172,-1.658 -0.516,-2.332c-0.344,-0.675 -0.853,-1.273 -1.527,-1.796c-0.675,-0.523 -1.5,-0.915 -2.477,-1.176c-0.977,-0.262 -2.745,-0.392 -5.304,-0.392l-1.362,-0l-0,10.814Z" style="fill:#090102;fill-rule:nonzero;"/><path d="M507.338,299.257l-14.983,0l-0,-30.214l3.591,0l-0,26.788l11.392,0l0,3.426Z" style="fill:#090102;fill-rule:nonzero;"/><rect x="522.449" y="269.043" width="3.55" height="30.214" style="fill:#090102;fill-rule:nonzero;"/><path d="M585.448,275.689c-1.101,-1.486 -2.037,-2.484 -2.807,-2.993c-0.771,-0.509 -1.672,-0.763 -2.704,-0.763c-1.032,-0 -1.898,0.33 -2.6,0.99c-0.702,0.661 -1.053,1.507 -1.053,2.539c0,1.032 0.33,1.933 0.991,2.703c0.66,0.771 2.181,2.03 4.561,3.777c2.38,1.747 4.121,3.391 5.222,4.932c1.1,1.541 1.651,3.165 1.651,4.871c-0,2.229 -0.86,4.162 -2.58,5.799c-1.72,1.637 -3.722,2.456 -6.006,2.456c-4.018,-0 -7.168,-2.243 -9.452,-6.728l3.013,-1.733c1.788,3.329 3.797,4.994 6.026,4.994c1.431,-0 2.656,-0.454 3.674,-1.362c1.018,-0.908 1.527,-1.968 1.527,-3.178c0,-1.211 -0.426,-2.36 -1.279,-3.447c-0.853,-1.087 -2.326,-2.421 -4.417,-4.004c-2.091,-1.582 -3.529,-2.786 -4.314,-3.611c-0.784,-0.826 -1.355,-1.706 -1.713,-2.642c-0.357,-0.936 -0.536,-1.871 -0.536,-2.807c-0,-2.008 0.695,-3.708 2.084,-5.097c1.39,-1.39 3.186,-2.085 5.387,-2.085c1.706,0 3.192,0.434 4.458,1.301c1.266,0.866 2.504,2.153 3.715,3.859l-2.848,2.229Z" style="fill:#090102;fill-rule:nonzero;"/><path d="M621.032,269.043l-12.383,26.747l11.599,-0l-0,3.467l-17.089,0l12.507,-26.788l-10.98,0l0,-3.426l16.346,0Z" style="fill:#090102;fill-rule:nonzero;"/><path d="M657.979,299.257l-4.706,0l-12.59,-13.373l0,13.373l-3.632,0l-0,-30.214l3.632,0l0,10.732l11.393,-10.732l4.871,0l-14.571,13.58l15.603,16.634Z" style="fill:#090102;fill-rule:nonzero;"/><path d="M687.33,268.3c2.944,0 5.655,0.695 8.132,2.085c2.476,1.389 4.423,3.309 5.84,5.758c1.418,2.449 2.126,5.111 2.126,7.987c0,2.875 -0.702,5.537 -2.105,7.986c-1.403,2.449 -3.33,4.376 -5.779,5.779c-2.449,1.403 -5.111,2.105 -7.987,2.105c-2.876,-0 -5.552,-0.695 -8.028,-2.084c-2.477,-1.39 -4.417,-3.302 -5.821,-5.738c-1.403,-2.435 -2.105,-5.09 -2.105,-7.966c0,-2.875 0.702,-5.545 2.105,-8.007c1.404,-2.463 3.323,-4.396 5.759,-5.8c2.435,-1.403 5.056,-2.105 7.863,-2.105Zm0.124,28.233c3.44,-0 6.35,-1.17 8.73,-3.509c2.38,-2.339 3.57,-5.269 3.57,-8.791c0,-3.522 -1.203,-6.481 -3.611,-8.875c-2.408,-2.393 -5.304,-3.59 -8.689,-3.59c-3.468,-0 -6.364,1.203 -8.689,3.611c-2.325,2.408 -3.488,5.338 -3.488,8.792c-0,3.453 1.197,6.377 3.591,8.771c2.394,2.394 5.256,3.591 8.586,3.591Z" style="fill:#090102;fill-rule:nonzero;"/><path d="M735.174,299.257l-14.984,0l-0,-30.214l3.591,0l0,26.788l11.393,0l-0,3.426Z" style="fill:#090102;fill-rule:nonzero;"/><path d="M774.597,299.257l-1.074,0l-19.152,-21.917l-0,21.917l-3.633,0l0,-30.214l1.074,0l19.276,22.207l0,-22.207l3.509,0l-0,30.214Z" style="fill:#090102;fill-rule:nonzero;"/><path d="M813.07,269.043l-9.659,15.85l0,14.364l-3.467,0l0,-14.364l-9.824,-15.85l4.128,0l7.389,11.929l7.306,-11.929l4.127,0Z" style="fill:#090102;fill-rule:nonzero;"/><path d="M856.91,293.726c-3.247,4.183 -7.705,6.274 -13.374,6.274c-4.788,-0 -8.709,-1.513 -11.764,-4.54c-3.054,-3.027 -4.582,-6.852 -4.582,-11.475c0,-2.862 0.709,-5.503 2.126,-7.925c1.417,-2.421 3.378,-4.32 5.882,-5.696c2.504,-1.376 5.208,-2.064 8.111,-2.064c2.903,0 5.504,0.558 7.802,1.672c2.297,1.114 4.217,2.745 5.758,4.891l-2.724,2.105c-2.862,-3.467 -6.398,-5.2 -10.609,-5.2c-3.44,-0 -6.405,1.21 -8.895,3.632c-2.49,2.421 -3.736,5.386 -3.736,8.895c0,3.508 1.218,6.439 3.653,8.791c2.436,2.353 5.594,3.529 9.474,3.529c3.88,0 7.251,-1.664 10.113,-4.994l2.765,2.105Z" style="fill:#090102;fill-rule:nonzero;"/><path d="M895.136,299.257l-3.55,0l0,-14.323l-14.488,0l-0,14.323l-3.591,0l-0,-30.214l3.591,0l-0,12.424l14.488,0l0,-12.424l3.55,0l0,30.214Z" style="fill:#090102;fill-rule:nonzero;"/></g><g><clipPath id="_clip1"><path d="M728.497,222.713c-8.376,-23.001 -12.541,-45.937 -12.541,-68.807c-0,-22.56 3.697,-43.501 11.044,-62.876c9.404,-24.79 23.933,-44.358 43.474,-58.852c13.084,-10.082 27.108,-17.006 42.011,-20.796c15.09,-3.839 34.342,-5.817 57.886,-5.817l29.629,0l-0,42.263l-32.852,0c-21.439,0 -39.329,3.374 -53.321,10.546c-18.829,9.576 -31.631,26.127 -38.651,48.918l-2.315,7.526l76.081,0l0,-48.33l51.058,0l-0,166.75l-51.058,-0l0,-76.157l-80.467,0l0,5.816c0,13.618 2.58,27.91 7.63,42.844c3.281,9.683 7.285,18.836 12.014,27.456l-55.529,0.037c-1.445,-3.446 -2.81,-6.958 -4.093,-10.521Zm-2.958,-174.885l-55.066,0l0,185.41l-51.346,-0l-0,-185.41l-54.291,0l-0,-42.263l160.703,0l-0,42.263Zm-725.398,18.66l51.347,0l-0,124.487l41.846,0c9.332,0 16.803,-0.643 21.45,-2.452c7.684,-3.017 11.901,-9.167 11.901,-17.422c0,-10.897 -7.096,-21.821 -18.512,-32.635c-9.872,-9.349 -22.258,-18.072 -37.072,-26.21l15.76,-11.778c17.188,-12.843 28.986,-24.982 28.986,-35.995c-0,-6.969 -3.313,-12.655 -10.371,-14.674c-5.015,-1.434 -14.339,-1.981 -27.08,-1.981l-78.255,0l0,-42.263l110.478,0c45.035,0 64.486,17.051 64.486,49.476c-0,10.556 -3.354,20.6 -10.326,30.238c-3.14,4.361 -9.404,10.948 -19.138,19.898l-5.098,4.681l5.493,4.214c10.639,8.155 18.805,16.163 24.649,24.009c9.858,13.307 14.673,27.513 14.673,42.758c0,20.575 -8.465,34.561 -25.491,43.067c-12.2,6.092 -28.501,9.332 -49.248,9.332l-110.478,-0l0,-166.75Zm211.228,-42.882c16.211,-15.32 42.658,-23.606 80.666,-23.606c34.706,-0 59.605,7.123 75.699,20.359c17.343,14.154 26.578,36.808 26.578,69.312c0,36.13 -8.64,68.893 -25.866,98.418c-19.915,34.194 -45.551,50.422 -76.996,50.422c-29.894,-0 -54.68,-14.505 -74.519,-44.825c-18.808,-28.584 -28.339,-62.977 -28.339,-103.427c-0,-30.905 7.959,-52.715 22.777,-66.653Zm46.026,134.397c8.213,19.262 18.938,32.384 33.471,32.384c16.348,-0 28.012,-14.391 36.47,-36.223c7.481,-19.207 11.234,-38.957 11.234,-59.22c-0,-16.751 -4.365,-30.313 -14.175,-39.421c-8.355,-7.657 -19.368,-11.207 -32.36,-11.207c-14.759,0 -26.898,3.691 -35.308,12.101c-8.54,8.54 -12.1,21.903 -12.1,38.527c-0,22.055 4.251,43.088 12.768,63.059Zm206.291,32.972c9.817,0 17.573,-0.495 21.622,-2.225c4.822,-2.068 7.629,-6.181 7.629,-11.485c-0,-4.805 -2.122,-9.342 -5.259,-13.195c-3.223,-3.408 -5.576,-5.964 -6.711,-7.292l-42.242,-48.024c-9.727,-10.68 -16.087,-18.68 -19.286,-24.005c-6.15,-9.934 -9.108,-19.836 -9.108,-29.729c-0,-14.752 4.832,-26.206 14.25,-34.926c10.133,-9.428 24.752,-14.529 44.671,-14.529l74.722,0l0,42.263l-45.43,0c-9.735,0 -17.536,0.475 -21.478,2.294c-4.887,2.257 -7.185,6.666 -7.185,11.723c0,3.267 0.905,6.346 2.587,9.142c1.523,2.545 4.77,6.381 9.201,11.2l43.924,48.605c9.318,10.095 15.454,17.776 18.646,23.101c6.15,10.129 9.125,20.338 9.125,30.681c0,16.259 -5.537,28.116 -16.211,36.419c-10.212,7.959 -24.252,12.245 -42.709,12.245l-81.771,-0l0,-42.263l51.013,0Z" clip-rule="nonzero"/></clipPath><g clip-path="url(#_clip1)"><path d="M-109.738,115.42l594.888,-554.743l-4.235,-4.541l-594.887,554.744" style="fill:#ae8354;fill-rule:nonzero;"/><path d="M-105.473,119.992l594.888,-554.744l-4.234,-4.54l-594.888,554.743" style="fill:#ae8455;fill-rule:nonzero;"/><path d="M-101.211,124.559l594.887,-554.743l-4.234,-4.541l-594.887,554.744" style="fill:#af8556;fill-rule:nonzero;"/><path d="M-96.949,129.131l594.887,-554.744l-4.234,-4.54l-594.888,554.743" style="fill:#b08556;fill-rule:nonzero;"/><path d="M-92.688,133.702l594.888,-554.744l-4.234,-4.54l-594.888,554.744" style="fill:#b08656;fill-rule:nonzero;"/><path d="M-88.426,138.273l594.888,-554.743l-4.235,-4.541l-594.887,554.744" style="fill:#b18757;fill-rule:nonzero;"/><path d="M-84.164,142.841l594.887,-554.744l-4.234,-4.54l-594.887,554.744" style="fill:#b18858;fill-rule:nonzero;"/><path d="M-79.903,147.412l594.888,-554.743l-4.234,-4.541l-594.888,554.744" style="fill:#b28858;fill-rule:nonzero;"/><path d="M-75.641,151.984l594.888,-554.744l-4.235,-4.54l-594.887,554.743" style="fill:#b28959;fill-rule:nonzero;"/><path d="M-71.376,156.555l594.888,-554.744l-4.234,-4.54l-594.888,554.743" style="fill:#b38a59;fill-rule:nonzero;"/><path d="M-67.114,161.126l594.888,-554.744l-4.235,-4.54l-594.887,554.744" style="fill:#b48b5a;fill-rule:nonzero;"/><path d="M-62.852,165.697l594.887,-554.743l-4.234,-4.541l-594.887,554.744" style="fill:#b58b5a;fill-rule:nonzero;"/><path d="M-58.591,170.265l594.888,-554.743l-4.234,-4.541l-594.888,554.744" style="fill:#b58c5b;fill-rule:nonzero;"/><path d="M-54.329,174.836l594.888,-554.743l-4.235,-4.54l-594.887,554.743" style="fill:#b58d5c;fill-rule:nonzero;"/><path d="M-50.067,179.408l594.887,-554.744l-4.234,-4.54l-594.887,554.743" style="fill:#b68e5c;fill-rule:nonzero;"/><path d="M-45.805,183.979l594.887,-554.744l-4.234,-4.54l-594.888,554.744" style="fill:#b78e5c;fill-rule:nonzero;"/><path d="M-41.544,188.55l594.888,-554.743l-4.234,-4.541l-594.888,554.744" style="fill:#b88f5d;fill-rule:nonzero;"/><path d="M-37.279,193.118l594.888,-554.744l-4.234,-4.54l-594.888,554.744" style="fill:#b8905e;fill-rule:nonzero;"/><path d="M-33.017,197.689l594.888,-554.743l-4.235,-4.541l-594.887,554.744" style="fill:#b9915f;fill-rule:nonzero;"/><path d="M-28.755,202.261l594.887,-554.744l-4.234,-4.54l-594.887,554.743" style="fill:#b9915f;fill-rule:nonzero;"/><path d="M-24.494,206.832l594.888,-554.744l-4.234,-4.54l-594.888,554.744" style="fill:#ba9260;fill-rule:nonzero;"/><path d="M-20.232,211.4l594.888,-554.744l-4.235,-4.54l-594.887,554.743" style="fill:#ba9360;fill-rule:nonzero;"/><path d="M-15.97,215.971l594.887,-554.744l-4.234,-4.54l-594.887,554.744" style="fill:#bb9461;fill-rule:nonzero;"/><path d="M-11.708,220.542l594.887,-554.743l-4.234,-4.541l-594.888,554.744" style="fill:#bc9461;fill-rule:nonzero;"/><path d="M-7.447,225.113l594.888,-554.743l-4.234,-4.54l-594.888,554.743" style="fill:#bd9562;fill-rule:nonzero;"/><path d="M-3.185,229.685l594.887,-554.744l-4.234,-4.54l-594.887,554.743" style="fill:#bd9663;fill-rule:nonzero;"/><path d="M1.08,234.256l594.888,-554.744l-4.235,-4.54l-594.887,554.744" style="fill:#bd9764;fill-rule:nonzero;"/><path d="M5.342,238.824l594.887,-554.744l-4.234,-4.54l-594.887,554.744" style="fill:#be9864;fill-rule:nonzero;"/><path d="M9.604,243.395l594.887,-554.743l-4.234,-4.541l-594.888,554.744" style="fill:#bf9864;fill-rule:nonzero;"/><path d="M13.865,247.966l594.888,-554.743l-4.234,-4.541l-594.888,554.744" style="fill:#c09965;fill-rule:nonzero;"/><path d="M18.127,252.538l594.887,-554.744l-4.234,-4.54l-594.887,554.743" style="fill:#c09a66;fill-rule:nonzero;"/><path d="M22.389,257.105l594.887,-554.743l-4.234,-4.54l-594.888,554.743" style="fill:#c19b66;fill-rule:nonzero;"/><path d="M26.65,261.677l594.888,-554.744l-4.234,-4.54l-594.888,554.743" style="fill:#c19c67;fill-rule:nonzero;"/><path d="M30.912,266.248l594.888,-554.744l-4.235,-4.54l-594.887,554.744" style="fill:#c29d68;fill-rule:nonzero;"/><path d="M35.177,270.819l594.888,-554.743l-4.234,-4.541l-594.888,554.744" style="fill:#c29d68;fill-rule:nonzero;"/><path d="M39.439,275.387l594.887,-554.743l-4.234,-4.541l-594.887,554.744" style="fill:#c39e68;fill-rule:nonzero;"/><path d="M43.701,279.958l594.887,-554.743l-4.234,-4.541l-594.888,554.744" style="fill:#c49f69;fill-rule:nonzero;"/><path d="M47.962,284.53l594.888,-554.744l-4.234,-4.54l-594.888,554.743" style="fill:#c5a06a;fill-rule:nonzero;"/><path d="M52.224,289.101l594.887,-554.744l-4.234,-4.54l-594.887,554.744" style="fill:#c6a16a;fill-rule:nonzero;"/><path d="M56.486,293.672l594.887,-554.743l-4.234,-4.541l-594.887,554.744" style="fill:#c6a16b;fill-rule:nonzero;"/><path d="M60.747,298.243l594.888,-554.743l-4.234,-4.54l-594.888,554.743" style="fill:#c6a26c;fill-rule:nonzero;"/><path d="M65.009,302.811l594.888,-554.743l-4.235,-4.541l-594.887,554.744" style="fill:#c7a36c;fill-rule:nonzero;"/><path d="M69.271,307.383l594.887,-554.744l-4.234,-4.54l-594.887,554.743" style="fill:#c8a46d;fill-rule:nonzero;"/><path d="M73.536,311.954l594.887,-554.744l-4.234,-4.54l-594.887,554.744" style="fill:#c8a56d;fill-rule:nonzero;"/><path d="M77.798,316.525l594.887,-554.743l-4.234,-4.541l-594.888,554.744" style="fill:#c9a66e;fill-rule:nonzero;"/><path d="M82.059,321.096l594.888,-554.743l-4.234,-4.541l-594.888,554.744" style="fill:#caa76f;fill-rule:nonzero;"/><path d="M86.321,325.664l594.888,-554.743l-4.235,-4.541l-594.887,554.744" style="fill:#cba76f;fill-rule:nonzero;"/><path d="M90.583,330.235l594.887,-554.743l-4.234,-4.54l-594.887,554.743" style="fill:#cca870;fill-rule:nonzero;"/><path d="M94.844,334.807l594.888,-554.744l-4.234,-4.54l-594.888,554.743" style="fill:#cca971;fill-rule:nonzero;"/><path d="M99.106,339.378l594.888,-554.744l-4.235,-4.54l-594.887,554.744" style="fill:#ccaa71;fill-rule:nonzero;"/><path d="M103.368,343.946l594.887,-554.744l-4.234,-4.54l-594.887,554.744" style="fill:#cdab72;fill-rule:nonzero;"/><path d="M107.633,348.517l594.888,-554.743l-4.235,-4.541l-594.887,554.744" style="fill:#ceac72;fill-rule:nonzero;"/><path d="M111.895,353.088l594.887,-554.743l-4.234,-4.541l-594.887,554.744" style="fill:#ceac73;fill-rule:nonzero;"/><path d="M116.156,357.66l594.888,-554.744l-4.234,-4.54l-594.888,554.743" style="fill:#cfad74;fill-rule:nonzero;"/><path d="M120.418,362.231l594.888,-554.744l-4.235,-4.54l-594.887,554.744" style="fill:#d0ae74;fill-rule:nonzero;"/><path d="M124.68,366.799l594.887,-554.744l-4.234,-4.54l-594.887,554.743" style="fill:#d1af75;fill-rule:nonzero;"/><path d="M128.942,371.37l594.887,-554.744l-4.234,-4.54l-594.888,554.744" style="fill:#d1b076;fill-rule:nonzero;"/><path d="M133.203,375.941l594.888,-554.743l-4.234,-4.541l-594.888,554.744" style="fill:#d2b177;fill-rule:nonzero;"/><path d="M137.465,380.513l594.887,-554.744l-4.234,-4.54l-594.887,554.743" style="fill:#d3b277;fill-rule:nonzero;"/><path d="M141.73,385.084l594.888,-554.744l-4.235,-4.54l-594.887,554.744" style="fill:#d3b378;fill-rule:nonzero;"/><path d="M145.992,389.652l594.887,-554.744l-4.234,-4.54l-594.887,554.743" style="fill:#d4b478;fill-rule:nonzero;"/><path d="M150.253,394.223l594.888,-554.744l-4.234,-4.54l-594.888,554.744" style="fill:#d4b479;fill-rule:nonzero;"/><path d="M154.515,398.794l594.888,-554.743l-4.235,-4.541l-594.887,554.744" style="fill:#d5b579;fill-rule:nonzero;"/><path d="M158.777,403.365l594.887,-554.743l-4.234,-4.54l-594.887,554.743" style="fill:#d6b67a;fill-rule:nonzero;"/><path d="M163.039,407.933l594.887,-554.743l-4.234,-4.541l-594.888,554.744" style="fill:#d7b77b;fill-rule:nonzero;"/><path d="M167.3,412.505l594.888,-554.744l-4.234,-4.54l-594.888,554.743" style="fill:#d7b87c;fill-rule:nonzero;"/><path d="M171.562,417.076l594.887,-554.744l-4.234,-4.54l-594.887,554.744" style="fill:#d8b97c;fill-rule:nonzero;"/><path d="M175.824,421.647l594.887,-554.743l-4.234,-4.541l-594.888,554.744" style="fill:#d9ba7d;fill-rule:nonzero;"/><path d="M180.089,426.218l594.887,-554.743l-4.234,-4.541l-594.887,554.744" style="fill:#dabb7e;fill-rule:nonzero;"/><path d="M184.351,430.79l594.887,-554.744l-4.234,-4.54l-594.888,554.743" style="fill:#dabc7f;fill-rule:nonzero;"/><path d="M188.612,435.357l594.888,-554.743l-4.234,-4.54l-594.888,554.743" style="fill:#dbbd7f;fill-rule:nonzero;"/><path d="M192.874,439.929l594.887,-554.744l-4.234,-4.54l-594.887,554.743" style="fill:#dbbe80;fill-rule:nonzero;"/><path d="M197.136,444.5l594.887,-554.744l-4.234,-4.54l-594.888,554.744" style="fill:#dcbf81;fill-rule:nonzero;"/><path d="M201.397,449.071l594.888,-554.743l-4.234,-4.541l-594.888,554.744" style="fill:#ddc081;fill-rule:nonzero;"/><path d="M205.659,453.639l594.888,-554.743l-4.235,-4.541l-594.887,554.744" style="fill:#ddc082;fill-rule:nonzero;"/><path d="M209.921,458.21l594.887,-554.743l-4.234,-4.541l-594.887,554.744" style="fill:#dec182;fill-rule:nonzero;"/><path d="M214.186,462.782l594.887,-554.744l-4.234,-4.54l-594.887,554.743" style="fill:#dfc283;fill-rule:nonzero;"/><path d="M218.448,467.353l594.887,-554.744l-4.234,-4.54l-594.888,554.744" style="fill:#e0c384;fill-rule:nonzero;"/><path d="M222.709,471.924l594.888,-554.743l-4.234,-4.541l-594.888,554.744" style="fill:#e0c484;fill-rule:nonzero;"/><path d="M226.971,476.492l594.887,-554.744l-4.234,-4.54l-594.887,554.744" style="fill:#e1c585;fill-rule:nonzero;"/><path d="M231.233,481.063l594.887,-554.743l-4.234,-4.541l-594.888,554.744" style="fill:#e2c686;fill-rule:nonzero;"/><path d="M235.494,485.635l594.888,-554.744l-4.234,-4.54l-594.888,554.743" style="fill:#e3c787;fill-rule:nonzero;"/><path d="M239.756,490.206l594.888,-554.744l-4.235,-4.54l-594.887,554.743" style="fill:#e4c887;fill-rule:nonzero;"/><path d="M244.018,494.777l594.887,-554.744l-4.234,-4.54l-594.887,554.744" style="fill:#e4c988;fill-rule:nonzero;"/><path d="M248.279,499.345l594.888,-554.744l-4.234,-4.54l-594.888,554.744" style="fill:#e5ca89;fill-rule:nonzero;"/><path d="M252.545,503.916l594.887,-554.743l-4.234,-4.541l-594.888,554.744" style="fill:#e6cb8a;fill-rule:nonzero;"/><path d="M256.806,508.487l594.888,-554.743l-4.234,-4.54l-594.888,554.743" style="fill:#e7cc8a;fill-rule:nonzero;"/><path d="M261.068,513.059l594.888,-554.744l-4.235,-4.54l-594.887,554.743" style="fill:#e7cc8b;fill-rule:nonzero;"/><path d="M265.33,517.63l594.887,-554.744l-4.234,-4.54l-594.887,554.744" style="fill:#e8cd8c;fill-rule:nonzero;"/><path d="M269.591,522.198l594.888,-554.744l-4.234,-4.54l-594.888,554.743" style="fill:#e8ce8d;fill-rule:nonzero;"/><path d="M273.853,526.769l594.888,-554.744l-4.235,-4.54l-594.887,554.744" style="fill:#e9cf8d;fill-rule:nonzero;"/><path d="M278.115,531.34l594.887,-554.743l-4.234,-4.541l-594.887,554.744" style="fill:#ead08e;fill-rule:nonzero;"/><path d="M282.377,535.912l594.887,-554.744l-4.234,-4.54l-594.888,554.743" style="fill:#ead18f;fill-rule:nonzero;"/><path d="M286.642,540.479l594.887,-554.743l-4.234,-4.54l-594.888,554.743" style="fill:#ebd28f;fill-rule:nonzero;"/><path d="M290.903,545.051l594.888,-554.744l-4.234,-4.54l-594.888,554.743" style="fill:#ecd390;fill-rule:nonzero;"/><path d="M295.165,549.622l594.888,-554.744l-4.235,-4.54l-594.887,554.744" style="fill:#edd491;fill-rule:nonzero;"/><path d="M299.427,554.193l594.887,-554.743l-4.234,-4.541l-594.887,554.744" style="fill:#edd591;fill-rule:nonzero;"/><path d="M303.688,558.765l594.888,-554.744l-4.234,-4.54l-594.888,554.743" style="fill:#eed692;fill-rule:nonzero;"/><path d="M307.95,563.336l594.888,-554.744l-4.234,-4.54l-594.888,554.743" style="fill:#efd793;fill-rule:nonzero;"/><path d="M312.212,567.904l594.887,-554.744l-4.234,-4.54l-594.887,554.743" style="fill:#f0d894;fill-rule:nonzero;"/><path d="M314.32,570.167l594.926,-554.778l-3.24,-3.474l-594.926,554.778" style="fill:#f0d894;fill-rule:nonzero;"/><path d="M317.602,573.682l594.925,-554.778l-3.24,-3.474l-594.925,554.778" style="fill:#efd793;fill-rule:nonzero;"/><path d="M320.88,577.201l594.925,-554.778l-3.24,-3.474l-594.925,554.778" style="fill:#eed692;fill-rule:nonzero;"/><path d="M324.161,580.716l594.926,-554.778l-3.241,-3.474l-594.925,554.778" style="fill:#edd591;fill-rule:nonzero;"/><path d="M327.439,584.235l594.925,-554.778l-3.24,-3.474l-594.925,554.778" style="fill:#edd491;fill-rule:nonzero;"/><path d="M330.721,587.75l594.925,-554.778l-3.24,-3.474l-594.926,554.778" style="fill:#ecd390;fill-rule:nonzero;"/><path d="M334.002,591.269l594.925,-554.778l-3.24,-3.474l-594.925,554.778" style="fill:#ebd28f;fill-rule:nonzero;"/><path d="M337.28,594.784l594.925,-554.778l-3.24,-3.474l-594.925,554.778" style="fill:#ead18f;fill-rule:nonzero;"/><path d="M340.561,598.303l594.926,-554.778l-3.24,-3.474l-594.926,554.778" style="fill:#e9d08e;fill-rule:nonzero;"/><path d="M343.839,601.822l594.926,-554.778l-3.24,-3.474l-594.926,554.778" style="fill:#e9cf8d;fill-rule:nonzero;"/><path d="M347.121,605.337l594.925,-554.778l-3.24,-3.474l-594.925,554.778" style="fill:#e8ce8d;fill-rule:nonzero;"/><path d="M350.399,608.856l594.925,-554.778l-3.24,-3.474l-594.925,554.778" style="fill:#e8cd8c;fill-rule:nonzero;"/><path d="M353.68,612.371l594.925,-554.778l-3.24,-3.474l-594.925,554.778" style="fill:#e7cc8b;fill-rule:nonzero;"/><path d="M356.961,615.89l594.926,-554.778l-3.24,-3.474l-594.926,554.778" style="fill:#e7cc8a;fill-rule:nonzero;"/><path d="M360.239,619.405l594.926,-554.778l-3.24,-3.474l-594.926,554.778" style="fill:#e6cb8a;fill-rule:nonzero;"/><path d="M363.521,622.924l594.925,-554.778l-3.24,-3.474l-594.925,554.778" style="fill:#e5ca89;fill-rule:nonzero;"/><path d="M366.799,626.443l594.925,-554.778l-3.24,-3.474l-594.925,554.778" style="fill:#e4c988;fill-rule:nonzero;"/><path d="M370.08,629.958l594.926,-554.778l-3.241,-3.474l-594.925,554.778" style="fill:#e3c887;fill-rule:nonzero;"/><path d="M373.358,633.477l594.926,-554.778l-3.241,-3.474l-594.925,554.778" style="fill:#e3c786;fill-rule:nonzero;"/><path d="M376.64,636.992l594.925,-554.778l-3.24,-3.474l-594.926,554.778" style="fill:#e2c686;fill-rule:nonzero;"/><path d="M379.918,640.511l594.925,-554.778l-3.24,-3.474l-594.926,554.778" style="fill:#e1c585;fill-rule:nonzero;"/><path d="M383.199,644.03l594.925,-554.778l-3.24,-3.474l-594.925,554.777" style="fill:#e0c484;fill-rule:nonzero;"/><path d="M386.48,647.545l594.926,-554.778l-3.24,-3.474l-594.926,554.778" style="fill:#e0c384;fill-rule:nonzero;"/><path d="M389.758,651.064l594.926,-554.778l-3.24,-3.474l-594.926,554.778" style="fill:#dfc283;fill-rule:nonzero;"/><path d="M393.04,654.579l594.925,-554.778l-3.24,-3.474l-594.925,554.778" style="fill:#dec182;fill-rule:nonzero;"/><path d="M396.318,658.098l594.925,-554.778l-3.24,-3.474l-594.925,554.778" style="fill:#ddc082;fill-rule:nonzero;"/><path d="M399.599,661.613l594.925,-554.778l-3.24,-3.474l-594.925,554.778" style="fill:#dcbf81;fill-rule:nonzero;"/><path d="M402.877,665.132l594.925,-554.778l-3.24,-3.474l-594.925,554.778" style="fill:#dcbf81;fill-rule:nonzero;"/><path d="M406.159,668.65l594.925,-554.778l-3.24,-3.474l-594.926,554.778" style="fill:#dbbe80;fill-rule:nonzero;"/><path d="M409.44,672.166l594.925,-554.778l-3.24,-3.474l-594.925,554.778" style="fill:#dbbd7f;fill-rule:nonzero;"/><path d="M412.718,675.684l594.925,-554.778l-3.24,-3.474l-594.925,554.778" style="fill:#dabc7e;fill-rule:nonzero;"/><path d="M415.999,679.2l594.926,-554.778l-3.24,-3.474l-594.926,554.778" style="fill:#dabb7e;fill-rule:nonzero;"/><path d="M419.277,682.718l594.926,-554.778l-3.241,-3.474l-594.925,554.778" style="fill:#d9ba7d;fill-rule:nonzero;"/><path d="M-109.738,115.42l594.888,-554.743l-4.235,-4.541l-594.887,554.744" style="fill:#ae8354;fill-rule:nonzero;"/><path d="M-105.473,119.992l594.888,-554.744l-4.234,-4.54l-594.888,554.743" style="fill:#ae8455;fill-rule:nonzero;"/><path d="M-101.211,124.559l594.887,-554.743l-4.234,-4.541l-594.887,554.744" style="fill:#af8556;fill-rule:nonzero;"/><path d="M-96.949,129.131l594.887,-554.744l-4.234,-4.54l-594.888,554.743" style="fill:#b08556;fill-rule:nonzero;"/><path d="M-92.688,133.702l594.888,-554.744l-4.234,-4.54l-594.888,554.744" style="fill:#b08656;fill-rule:nonzero;"/><path d="M-88.426,138.273l594.888,-554.743l-4.235,-4.541l-594.887,554.744" style="fill:#b18757;fill-rule:nonzero;"/><path d="M-84.164,142.841l594.887,-554.744l-4.234,-4.54l-594.887,554.744" style="fill:#b18858;fill-rule:nonzero;"/><path d="M-79.903,147.412l594.888,-554.743l-4.234,-4.541l-594.888,554.744" style="fill:#b28858;fill-rule:nonzero;"/><path d="M-75.641,151.984l594.888,-554.744l-4.235,-4.54l-594.887,554.743" style="fill:#b28959;fill-rule:nonzero;"/><path d="M-71.376,156.555l594.888,-554.744l-4.234,-4.54l-594.888,554.743" style="fill:#b38a59;fill-rule:nonzero;"/><path d="M-67.114,161.126l594.888,-554.744l-4.235,-4.54l-594.887,554.744" style="fill:#b48b5a;fill-rule:nonzero;"/><path d="M-62.852,165.697l594.887,-554.743l-4.234,-4.541l-594.887,554.744" style="fill:#b58b5a;fill-rule:nonzero;"/><path d="M-58.591,170.265l594.888,-554.743l-4.234,-4.541l-594.888,554.744" style="fill:#b58c5b;fill-rule:nonzero;"/><path d="M-54.329,174.836l594.888,-554.743l-4.235,-4.54l-594.887,554.743" style="fill:#b58d5c;fill-rule:nonzero;"/><path d="M-50.067,179.408l594.887,-554.744l-4.234,-4.54l-594.887,554.743" style="fill:#b68e5c;fill-rule:nonzero;"/><path d="M-45.805,183.979l594.887,-554.744l-4.234,-4.54l-594.888,554.744" style="fill:#b78e5c;fill-rule:nonzero;"/><path d="M-41.544,188.55l594.888,-554.743l-4.234,-4.541l-594.888,554.744" style="fill:#b88f5d;fill-rule:nonzero;"/><path d="M-37.279,193.118l594.888,-554.744l-4.234,-4.54l-594.888,554.744" style="fill:#b8905e;fill-rule:nonzero;"/><path d="M-33.017,197.689l594.888,-554.743l-4.235,-4.541l-594.887,554.744" style="fill:#b9915f;fill-rule:nonzero;"/><path d="M-28.755,202.261l594.887,-554.744l-4.234,-4.54l-594.887,554.743" style="fill:#b9915f;fill-rule:nonzero;"/><path d="M-24.494,206.832l594.888,-554.744l-4.234,-4.54l-594.888,554.744" style="fill:#ba9260;fill-rule:nonzero;"/><path d="M-20.232,211.4l594.888,-554.744l-4.235,-4.54l-594.887,554.743" style="fill:#ba9360;fill-rule:nonzero;"/><path d="M-15.97,215.971l594.887,-554.744l-4.234,-4.54l-594.887,554.744" style="fill:#bb9461;fill-rule:nonzero;"/><path d="M-11.708,220.542l594.887,-554.743l-4.234,-4.541l-594.888,554.744" style="fill:#bc9461;fill-rule:nonzero;"/><path d="M-7.447,225.113l594.888,-554.743l-4.234,-4.54l-594.888,554.743" style="fill:#bd9562;fill-rule:nonzero;"/><path d="M-3.185,229.685l594.887,-554.744l-4.234,-4.54l-594.887,554.743" style="fill:#bd9663;fill-rule:nonzero;"/><path d="M1.08,234.256l594.888,-554.744l-4.235,-4.54l-594.887,554.744" style="fill:#bd9764;fill-rule:nonzero;"/><path d="M5.342,238.824l594.887,-554.744l-4.234,-4.54l-594.887,554.744" style="fill:#be9864;fill-rule:nonzero;"/><path d="M9.604,243.395l594.887,-554.743l-4.234,-4.541l-594.888,554.744" style="fill:#bf9864;fill-rule:nonzero;"/><path d="M13.865,247.966l594.888,-554.743l-4.234,-4.541l-594.888,554.744" style="fill:#c09965;fill-rule:nonzero;"/><path d="M18.127,252.538l594.887,-554.744l-4.234,-4.54l-594.887,554.743" style="fill:#c09a66;fill-rule:nonzero;"/><path d="M22.389,257.105l594.887,-554.743l-4.234,-4.54l-594.888,554.743" style="fill:#c19b66;fill-rule:nonzero;"/><path d="M26.65,261.677l594.888,-554.744l-4.234,-4.54l-594.888,554.743" style="fill:#c19c67;fill-rule:nonzero;"/><path d="M30.912,266.248l594.888,-554.744l-4.235,-4.54l-594.887,554.744" style="fill:#c29d68;fill-rule:nonzero;"/><path d="M35.177,270.819l594.888,-554.743l-4.234,-4.541l-594.888,554.744" style="fill:#c29d68;fill-rule:nonzero;"/><path d="M39.439,275.387l594.887,-554.743l-4.234,-4.541l-594.887,554.744" style="fill:#c39e68;fill-rule:nonzero;"/><path d="M43.701,279.958l594.887,-554.743l-4.234,-4.541l-594.888,554.744" style="fill:#c49f69;fill-rule:nonzero;"/><path d="M47.962,284.53l594.888,-554.744l-4.234,-4.54l-594.888,554.743" style="fill:#c5a06a;fill-rule:nonzero;"/><path d="M52.224,289.101l594.887,-554.744l-4.234,-4.54l-594.887,554.744" style="fill:#c6a16a;fill-rule:nonzero;"/><path d="M56.486,293.672l594.887,-554.743l-4.234,-4.541l-594.887,554.744" style="fill:#c6a16b;fill-rule:nonzero;"/><path d="M60.747,298.243l594.888,-554.743l-4.234,-4.54l-594.888,554.743" style="fill:#c6a26c;fill-rule:nonzero;"/><path d="M65.009,302.811l594.888,-554.743l-4.235,-4.541l-594.887,554.744" style="fill:#c7a36c;fill-rule:nonzero;"/><path d="M69.271,307.383l594.887,-554.744l-4.234,-4.54l-594.887,554.743" style="fill:#c8a46d;fill-rule:nonzero;"/><path d="M73.536,311.954l594.887,-554.744l-4.234,-4.54l-594.887,554.744" style="fill:#c8a56d;fill-rule:nonzero;"/><path d="M77.798,316.525l594.887,-554.743l-4.234,-4.541l-594.888,554.744" style="fill:#c9a66e;fill-rule:nonzero;"/><path d="M82.059,321.096l594.888,-554.743l-4.234,-4.541l-594.888,554.744" style="fill:#caa76f;fill-rule:nonzero;"/><path d="M86.321,325.664l594.888,-554.743l-4.235,-4.541l-594.887,554.744" style="fill:#cba76f;fill-rule:nonzero;"/><path d="M90.583,330.235l594.887,-554.743l-4.234,-4.54l-594.887,554.743" style="fill:#cca870;fill-rule:nonzero;"/><path d="M94.844,334.807l594.888,-554.744l-4.234,-4.54l-594.888,554.743" style="fill:#cca971;fill-rule:nonzero;"/><path d="M99.106,339.378l594.888,-554.744l-4.235,-4.54l-594.887,554.744" style="fill:#ccaa71;fill-rule:nonzero;"/><path d="M103.368,343.946l594.887,-554.744l-4.234,-4.54l-594.887,554.744" style="fill:#cdab72;fill-rule:nonzero;"/><path d="M107.633,348.517l594.888,-554.743l-4.235,-4.541l-594.887,554.744" style="fill:#ceac72;fill-rule:nonzero;"/><path d="M111.895,353.088l594.887,-554.743l-4.234,-4.541l-594.887,554.744" style="fill:#ceac73;fill-rule:nonzero;"/><path d="M116.156,357.66l594.888,-554.744l-4.234,-4.54l-594.888,554.743" style="fill:#cfad74;fill-rule:nonzero;"/><path d="M120.418,362.231l594.888,-554.744l-4.235,-4.54l-594.887,554.744" style="fill:#d0ae74;fill-rule:nonzero;"/><path d="M124.68,366.799l594.887,-554.744l-4.234,-4.54l-594.887,554.743" style="fill:#d1af75;fill-rule:nonzero;"/><path d="M128.942,371.37l594.887,-554.744l-4.234,-4.54l-594.888,554.744" style="fill:#d1b076;fill-rule:nonzero;"/><path d="M133.203,375.941l594.888,-554.743l-4.234,-4.541l-594.888,554.744" style="fill:#d2b177;fill-rule:nonzero;"/><path d="M137.465,380.513l594.887,-554.744l-4.234,-4.54l-594.887,554.743" style="fill:#d3b277;fill-rule:nonzero;"/><path d="M141.73,385.084l594.888,-554.744l-4.235,-4.54l-594.887,554.744" style="fill:#d3b378;fill-rule:nonzero;"/><path d="M145.992,389.652l594.887,-554.744l-4.234,-4.54l-594.887,554.743" style="fill:#d4b478;fill-rule:nonzero;"/><path d="M150.253,394.223l594.888,-554.744l-4.234,-4.54l-594.888,554.744" style="fill:#d4b479;fill-rule:nonzero;"/><path d="M154.515,398.794l594.888,-554.743l-4.235,-4.541l-594.887,554.744" style="fill:#d5b579;fill-rule:nonzero;"/><path d="M158.777,403.365l594.887,-554.743l-4.234,-4.54l-594.887,554.743" style="fill:#d6b67a;fill-rule:nonzero;"/><path d="M163.039,407.933l594.887,-554.743l-4.234,-4.541l-594.888,554.744" style="fill:#d7b77b;fill-rule:nonzero;"/><path d="M167.3,412.505l594.888,-554.744l-4.234,-4.54l-594.888,554.743" style="fill:#d7b87c;fill-rule:nonzero;"/><path d="M171.562,417.076l594.887,-554.744l-4.234,-4.54l-594.887,554.744" style="fill:#d8b97c;fill-rule:nonzero;"/><path d="M175.824,421.647l594.887,-554.743l-4.234,-4.541l-594.888,554.744" style="fill:#d9ba7d;fill-rule:nonzero;"/><path d="M180.089,426.218l594.887,-554.743l-4.234,-4.541l-594.887,554.744" style="fill:#dabb7e;fill-rule:nonzero;"/><path d="M184.351,430.79l594.887,-554.744l-4.234,-4.54l-594.888,554.743" style="fill:#dabc7f;fill-rule:nonzero;"/><path d="M188.612,435.357l594.888,-554.743l-4.234,-4.54l-594.888,554.743" style="fill:#dbbd7f;fill-rule:nonzero;"/><path d="M192.874,439.929l594.887,-554.744l-4.234,-4.54l-594.887,554.743" style="fill:#dbbe80;fill-rule:nonzero;"/><path d="M197.136,444.5l594.887,-554.744l-4.234,-4.54l-594.888,554.744" style="fill:#dcbf81;fill-rule:nonzero;"/><path d="M201.397,449.071l594.888,-554.743l-4.234,-4.541l-594.888,554.744" style="fill:#ddc081;fill-rule:nonzero;"/><path d="M205.659,453.639l594.888,-554.743l-4.235,-4.541l-594.887,554.744" style="fill:#ddc082;fill-rule:nonzero;"/><path d="M209.921,458.21l594.887,-554.743l-4.234,-4.541l-594.887,554.744" style="fill:#dec182;fill-rule:nonzero;"/><path d="M214.186,462.782l594.887,-554.744l-4.234,-4.54l-594.887,554.743" style="fill:#dfc283;fill-rule:nonzero;"/><path d="M218.448,467.353l594.887,-554.744l-4.234,-4.54l-594.888,554.744" style="fill:#e0c384;fill-rule:nonzero;"/><path d="M222.709,471.924l594.888,-554.743l-4.234,-4.541l-594.888,554.744" style="fill:#e0c484;fill-rule:nonzero;"/><path d="M226.971,476.492l594.887,-554.744l-4.234,-4.54l-594.887,554.744" style="fill:#e1c585;fill-rule:nonzero;"/><path d="M231.233,481.063l594.887,-554.743l-4.234,-4.541l-594.888,554.744" style="fill:#e2c686;fill-rule:nonzero;"/><path d="M235.494,485.635l594.888,-554.744l-4.234,-4.54l-594.888,554.743" style="fill:#e3c787;fill-rule:nonzero;"/><path d="M239.756,490.206l594.888,-554.744l-4.235,-4.54l-594.887,554.743" style="fill:#e4c887;fill-rule:nonzero;"/><path d="M244.018,494.777l594.887,-554.744l-4.234,-4.54l-594.887,554.744" style="fill:#e4c988;fill-rule:nonzero;"/><path d="M248.279,499.345l594.888,-554.744l-4.234,-4.54l-594.888,554.744" style="fill:#e5ca89;fill-rule:nonzero;"/><path d="M252.545,503.916l594.887,-554.743l-4.234,-4.541l-594.888,554.744" style="fill:#e6cb8a;fill-rule:nonzero;"/><path d="M256.806,508.487l594.888,-554.743l-4.234,-4.54l-594.888,554.743" style="fill:#e7cc8a;fill-rule:nonzero;"/><path d="M261.068,513.059l594.888,-554.744l-4.235,-4.54l-594.887,554.743" style="fill:#e7cc8b;fill-rule:nonzero;"/><path d="M265.33,517.63l594.887,-554.744l-4.234,-4.54l-594.887,554.744" style="fill:#e8cd8c;fill-rule:nonzero;"/><path d="M269.591,522.198l594.888,-554.744l-4.234,-4.54l-594.888,554.743" style="fill:#e8ce8d;fill-rule:nonzero;"/><path d="M273.853,526.769l594.888,-554.744l-4.235,-4.54l-594.887,554.744" style="fill:#e9cf8d;fill-rule:nonzero;"/><path d="M278.115,531.34l594.887,-554.743l-4.234,-4.541l-594.887,554.744" style="fill:#ead08e;fill-rule:nonzero;"/><path d="M282.377,535.912l594.887,-554.744l-4.234,-4.54l-594.888,554.743" style="fill:#ead18f;fill-rule:nonzero;"/><path d="M286.642,540.479l594.887,-554.743l-4.234,-4.54l-594.888,554.743" style="fill:#ebd28f;fill-rule:nonzero;"/><path d="M290.903,545.051l594.888,-554.744l-4.234,-4.54l-594.888,554.743" style="fill:#ecd390;fill-rule:nonzero;"/><path d="M295.165,549.622l594.888,-554.744l-4.235,-4.54l-594.887,554.744" style="fill:#edd491;fill-rule:nonzero;"/><path d="M299.427,554.193l594.887,-554.743l-4.234,-4.541l-594.887,554.744" style="fill:#edd591;fill-rule:nonzero;"/><path d="M303.688,558.765l594.888,-554.744l-4.234,-4.54l-594.888,554.743" style="fill:#eed692;fill-rule:nonzero;"/><path d="M307.95,563.336l594.888,-554.744l-4.234,-4.54l-594.888,554.743" style="fill:#efd793;fill-rule:nonzero;"/><path d="M312.212,567.904l594.887,-554.744l-4.234,-4.54l-594.887,554.743" style="fill:#f0d894;fill-rule:nonzero;"/><path d="M314.32,570.167l594.926,-554.778l-3.24,-3.474l-594.926,554.778" style="fill:#f0d894;fill-rule:nonzero;"/><path d="M317.602,573.682l594.925,-554.778l-3.24,-3.474l-594.925,554.778" style="fill:#efd793;fill-rule:nonzero;"/><path d="M320.88,577.201l594.925,-554.778l-3.24,-3.474l-594.925,554.778" style="fill:#eed692;fill-rule:nonzero;"/><path d="M324.161,580.716l594.926,-554.778l-3.241,-3.474l-594.925,554.778" style="fill:#edd591;fill-rule:nonzero;"/><path d="M327.439,584.235l594.925,-554.778l-3.24,-3.474l-594.925,554.778" style="fill:#edd491;fill-rule:nonzero;"/><path d="M330.721,587.75l594.925,-554.778l-3.24,-3.474l-594.926,554.778" style="fill:#ecd390;fill-rule:nonzero;"/><path d="M334.002,591.269l594.925,-554.778l-3.24,-3.474l-594.925,554.778" style="fill:#ebd28f;fill-rule:nonzero;"/><path d="M337.28,594.784l594.925,-554.778l-3.24,-3.474l-594.925,554.778" style="fill:#ead18f;fill-rule:nonzero;"/><path d="M340.561,598.303l594.926,-554.778l-3.24,-3.474l-594.926,554.778" style="fill:#e9d08e;fill-rule:nonzero;"/><path d="M343.839,601.822l594.926,-554.778l-3.24,-3.474l-594.926,554.778" style="fill:#e9cf8d;fill-rule:nonzero;"/><path d="M347.121,605.337l594.925,-554.778l-3.24,-3.474l-594.925,554.778" style="fill:#e8ce8d;fill-rule:nonzero;"/><path d="M350.399,608.856l594.925,-554.778l-3.24,-3.474l-594.925,554.778" style="fill:#e8cd8c;fill-rule:nonzero;"/><path d="M353.68,612.371l594.925,-554.778l-3.24,-3.474l-594.925,554.778" style="fill:#e7cc8b;fill-rule:nonzero;"/><path d="M356.961,615.89l594.926,-554.778l-3.24,-3.474l-594.926,554.778" style="fill:#e7cc8a;fill-rule:nonzero;"/><path d="M360.239,619.405l594.926,-554.778l-3.24,-3.474l-594.926,554.778" style="fill:#e6cb8a;fill-rule:nonzero;"/><path d="M363.521,622.924l594.925,-554.778l-3.24,-3.474l-594.925,554.778" style="fill:#e5ca89;fill-rule:nonzero;"/><path d="M366.799,626.443l594.925,-554.778l-3.24,-3.474l-594.925,554.778" style="fill:#e4c988;fill-rule:nonzero;"/><path d="M370.08,629.958l594.926,-554.778l-3.241,-3.474l-594.925,554.778" style="fill:#e3c887;fill-rule:nonzero;"/><path d="M373.358,633.477l594.926,-554.778l-3.241,-3.474l-594.925,554.778" style="fill:#e3c786;fill-rule:nonzero;"/><path d="M376.64,636.992l594.925,-554.778l-3.24,-3.474l-594.926,554.778" style="fill:#e2c686;fill-rule:nonzero;"/><path d="M379.918,640.511l594.925,-554.778l-3.24,-3.474l-594.926,554.778" style="fill:#e1c585;fill-rule:nonzero;"/><path d="M383.199,644.03l594.925,-554.778l-3.24,-3.474l-594.925,554.777" style="fill:#e0c484;fill-rule:nonzero;"/><path d="M386.48,647.545l594.926,-554.778l-3.24,-3.474l-594.926,554.778" style="fill:#e0c384;fill-rule:nonzero;"/><path d="M389.758,651.064l594.926,-554.778l-3.24,-3.474l-594.926,554.778" style="fill:#dfc283;fill-rule:nonzero;"/><path d="M393.04,654.579l594.925,-554.778l-3.24,-3.474l-594.925,554.778" style="fill:#dec182;fill-rule:nonzero;"/><path d="M396.318,658.098l594.925,-554.778l-3.24,-3.474l-594.925,554.778" style="fill:#ddc082;fill-rule:nonzero;"/><path d="M399.599,661.613l594.925,-554.778l-3.24,-3.474l-594.925,554.778" style="fill:#dcbf81;fill-rule:nonzero;"/><path d="M402.877,665.132l594.925,-554.778l-3.24,-3.474l-594.925,554.778" style="fill:#dcbf81;fill-rule:nonzero;"/><path d="M406.159,668.65l594.925,-554.778l-3.24,-3.474l-594.926,554.778" style="fill:#dbbe80;fill-rule:nonzero;"/><path d="M409.44,672.166l594.925,-554.778l-3.24,-3.474l-594.925,554.778" style="fill:#dbbd7f;fill-rule:nonzero;"/><path d="M412.718,675.684l594.925,-554.778l-3.24,-3.474l-594.925,554.778" style="fill:#dabc7e;fill-rule:nonzero;"/><path d="M415.999,679.2l594.926,-554.778l-3.24,-3.474l-594.926,554.778" style="fill:#dabb7e;fill-rule:nonzero;"/><path d="M419.277,682.718l594.926,-554.778l-3.241,-3.474l-594.925,554.778" style="fill:#d9ba7d;fill-rule:nonzero;"/></g></g></svg>